<mxfile host="app.diagrams.net" modified="2021-09-13T03:55:20.878Z" agent="5.0 (Windows NT 10.0; Win64; x64) AppleWebKit/537.36 (KHTML, like Gecko) Chrome/93.0.4577.63 Safari/537.36" etag="u2B9h6lmeY_ABBOXq1Hm" version="15.2.1" type="github" pages="2">
  <diagram id="C5RBs43oDa-KdzZeNtuy" name="Register">
    <mxGraphModel dx="2942" dy="1122" grid="1" gridSize="10" guides="1" tooltips="1" connect="1" arrows="1" fold="1" page="0" pageScale="1" pageWidth="1200" pageHeight="1600" math="0" shadow="1">
      <root>
        <mxCell id="WIyWlLk6GJQsqaUBKTNV-0" />
        <mxCell id="WIyWlLk6GJQsqaUBKTNV-1" parent="WIyWlLk6GJQsqaUBKTNV-0" />
        <mxCell id="0BklGKwx9ci3qJPS7ujR-6" style="edgeStyle=orthogonalEdgeStyle;rounded=0;orthogonalLoop=1;jettySize=auto;html=1;entryX=0.5;entryY=0;entryDx=0;entryDy=0;" parent="WIyWlLk6GJQsqaUBKTNV-1" source="WIyWlLk6GJQsqaUBKTNV-3" target="0BklGKwx9ci3qJPS7ujR-1" edge="1">
          <mxGeometry relative="1" as="geometry" />
        </mxCell>
        <mxCell id="WIyWlLk6GJQsqaUBKTNV-3" value="Intercept submit" style="rounded=1;whiteSpace=wrap;html=1;fontSize=12;glass=0;strokeWidth=1;shadow=0;" parent="WIyWlLk6GJQsqaUBKTNV-1" vertex="1">
          <mxGeometry x="360" y="310" width="120" height="40" as="geometry" />
        </mxCell>
        <mxCell id="0BklGKwx9ci3qJPS7ujR-10" style="edgeStyle=orthogonalEdgeStyle;rounded=0;orthogonalLoop=1;jettySize=auto;html=1;entryX=0;entryY=0.5;entryDx=0;entryDy=0;" parent="WIyWlLk6GJQsqaUBKTNV-1" source="0BklGKwx9ci3qJPS7ujR-1" target="0BklGKwx9ci3qJPS7ujR-9" edge="1">
          <mxGeometry relative="1" as="geometry" />
        </mxCell>
        <mxCell id="0BklGKwx9ci3qJPS7ujR-11" style="edgeStyle=orthogonalEdgeStyle;rounded=0;orthogonalLoop=1;jettySize=auto;html=1;" parent="WIyWlLk6GJQsqaUBKTNV-1" source="0BklGKwx9ci3qJPS7ujR-1" target="0BklGKwx9ci3qJPS7ujR-8" edge="1">
          <mxGeometry relative="1" as="geometry" />
        </mxCell>
        <mxCell id="x4zBANAvjys-Jdkt2w1P-3" value="" style="edgeStyle=orthogonalEdgeStyle;rounded=0;orthogonalLoop=1;jettySize=auto;html=1;" edge="1" parent="WIyWlLk6GJQsqaUBKTNV-1" source="0BklGKwx9ci3qJPS7ujR-1" target="x4zBANAvjys-Jdkt2w1P-2">
          <mxGeometry relative="1" as="geometry" />
        </mxCell>
        <mxCell id="0BklGKwx9ci3qJPS7ujR-1" value="Send Invite POST to Vouched API" style="rounded=1;whiteSpace=wrap;html=1;fontSize=12;glass=0;strokeWidth=1;shadow=0;" parent="WIyWlLk6GJQsqaUBKTNV-1" vertex="1">
          <mxGeometry x="360" y="420" width="120" height="40" as="geometry" />
        </mxCell>
        <mxCell id="0BklGKwx9ci3qJPS7ujR-4" style="edgeStyle=orthogonalEdgeStyle;rounded=0;orthogonalLoop=1;jettySize=auto;html=1;entryX=0.5;entryY=0;entryDx=0;entryDy=0;" parent="WIyWlLk6GJQsqaUBKTNV-1" source="0BklGKwx9ci3qJPS7ujR-2" target="0BklGKwx9ci3qJPS7ujR-3" edge="1">
          <mxGeometry relative="1" as="geometry" />
        </mxCell>
        <mxCell id="0BklGKwx9ci3qJPS7ujR-2" value="&lt;span&gt;&amp;nbsp;User fills out&lt;br&gt;&amp;nbsp;account form&lt;/span&gt;" style="verticalLabelPosition=middle;verticalAlign=middle;html=1;shape=trapezoid;perimeter=trapezoidPerimeter;whiteSpace=wrap;size=0.23;arcSize=10;flipV=1;labelPosition=center;align=center;fillColor=#FCFCFC;" parent="WIyWlLk6GJQsqaUBKTNV-1" vertex="1">
          <mxGeometry x="360" y="80" width="120" height="60" as="geometry" />
        </mxCell>
        <mxCell id="0BklGKwx9ci3qJPS7ujR-5" style="edgeStyle=orthogonalEdgeStyle;rounded=0;orthogonalLoop=1;jettySize=auto;html=1;entryX=0.5;entryY=0;entryDx=0;entryDy=0;" parent="WIyWlLk6GJQsqaUBKTNV-1" source="0BklGKwx9ci3qJPS7ujR-3" target="WIyWlLk6GJQsqaUBKTNV-3" edge="1">
          <mxGeometry relative="1" as="geometry" />
        </mxCell>
        <mxCell id="0BklGKwx9ci3qJPS7ujR-3" value="&lt;span&gt;User clicks&lt;br&gt;Submit&lt;br&gt;&lt;/span&gt;" style="verticalLabelPosition=middle;verticalAlign=middle;html=1;shape=trapezoid;perimeter=trapezoidPerimeter;whiteSpace=wrap;size=0.23;arcSize=10;flipV=1;labelPosition=center;align=center;fillColor=#FCFCFC;" parent="WIyWlLk6GJQsqaUBKTNV-1" vertex="1">
          <mxGeometry x="360" y="210" width="120" height="60" as="geometry" />
        </mxCell>
        <mxCell id="0BklGKwx9ci3qJPS7ujR-13" style="edgeStyle=orthogonalEdgeStyle;rounded=0;orthogonalLoop=1;jettySize=auto;html=1;" parent="WIyWlLk6GJQsqaUBKTNV-1" source="0BklGKwx9ci3qJPS7ujR-8" target="0BklGKwx9ci3qJPS7ujR-12" edge="1">
          <mxGeometry relative="1" as="geometry" />
        </mxCell>
        <mxCell id="0BklGKwx9ci3qJPS7ujR-8" value="Save Invite ID to user meta data" style="rounded=1;whiteSpace=wrap;html=1;fontSize=12;glass=0;strokeWidth=1;shadow=0;" parent="WIyWlLk6GJQsqaUBKTNV-1" vertex="1">
          <mxGeometry x="210" y="420" width="120" height="40" as="geometry" />
        </mxCell>
        <mxCell id="0BklGKwx9ci3qJPS7ujR-9" value="Message prompt informing user of invite email." style="rounded=1;whiteSpace=wrap;html=1;fontSize=12;glass=0;strokeWidth=1;shadow=0;" parent="WIyWlLk6GJQsqaUBKTNV-1" vertex="1">
          <mxGeometry x="510" y="420" width="120" height="40" as="geometry" />
        </mxCell>
        <mxCell id="0BklGKwx9ci3qJPS7ujR-12" value="WP_User" style="strokeWidth=1;html=1;shape=mxgraph.flowchart.database;whiteSpace=wrap;fillColor=#FCFCFC;" parent="WIyWlLk6GJQsqaUBKTNV-1" vertex="1">
          <mxGeometry x="240" y="530" width="60" height="60" as="geometry" />
        </mxCell>
        <mxCell id="x4zBANAvjys-Jdkt2w1P-4" value="" style="edgeStyle=orthogonalEdgeStyle;rounded=0;orthogonalLoop=1;jettySize=auto;html=1;" edge="1" parent="WIyWlLk6GJQsqaUBKTNV-1" source="x4zBANAvjys-Jdkt2w1P-2" target="0BklGKwx9ci3qJPS7ujR-12">
          <mxGeometry relative="1" as="geometry" />
        </mxCell>
        <mxCell id="x4zBANAvjys-Jdkt2w1P-2" value="Set User Role as default" style="rounded=1;whiteSpace=wrap;html=1;fontSize=12;glass=0;strokeWidth=1;shadow=0;" vertex="1" parent="WIyWlLk6GJQsqaUBKTNV-1">
          <mxGeometry x="360" y="540" width="120" height="40" as="geometry" />
        </mxCell>
      </root>
    </mxGraphModel>
  </diagram>
  <diagram id="FUD7xHW1DmYKEpzv24Qb" name="Login">
    <mxGraphModel dx="2275" dy="1020" grid="1" gridSize="10" guides="1" tooltips="1" connect="1" arrows="1" fold="1" page="0" pageScale="1" pageWidth="1200" pageHeight="1600" math="0" shadow="0">
      <root>
        <mxCell id="9qL4d-IsdaPlkCjsfBJc-0" />
        <mxCell id="9qL4d-IsdaPlkCjsfBJc-1" parent="9qL4d-IsdaPlkCjsfBJc-0" />
        <mxCell id="P1aOT_XNwO-6XhP_oxoh-6" style="edgeStyle=orthogonalEdgeStyle;rounded=0;orthogonalLoop=1;jettySize=auto;html=1;entryX=0.5;entryY=0;entryDx=0;entryDy=0;entryPerimeter=0;" edge="1" parent="9qL4d-IsdaPlkCjsfBJc-1" source="P1aOT_XNwO-6XhP_oxoh-0" target="P1aOT_XNwO-6XhP_oxoh-1">
          <mxGeometry relative="1" as="geometry" />
        </mxCell>
        <mxCell id="P1aOT_XNwO-6XhP_oxoh-0" value="User logs in" style="verticalLabelPosition=middle;verticalAlign=middle;html=1;shape=trapezoid;perimeter=trapezoidPerimeter;whiteSpace=wrap;size=0.23;arcSize=10;flipV=1;labelPosition=center;align=center;strokeWidth=2;fillColor=#FCFCFC;" vertex="1" parent="9qL4d-IsdaPlkCjsfBJc-1">
          <mxGeometry x="540" y="160" width="100" height="60" as="geometry" />
        </mxCell>
        <mxCell id="P1aOT_XNwO-6XhP_oxoh-7" value="NO" style="edgeStyle=orthogonalEdgeStyle;rounded=0;orthogonalLoop=1;jettySize=auto;html=1;" edge="1" parent="9qL4d-IsdaPlkCjsfBJc-1" source="P1aOT_XNwO-6XhP_oxoh-1">
          <mxGeometry relative="1" as="geometry">
            <mxPoint x="710" y="310" as="targetPoint" />
          </mxGeometry>
        </mxCell>
        <mxCell id="P1aOT_XNwO-6XhP_oxoh-8" value="YES" style="edgeStyle=orthogonalEdgeStyle;rounded=0;orthogonalLoop=1;jettySize=auto;html=1;entryX=0.5;entryY=0;entryDx=0;entryDy=0;" edge="1" parent="9qL4d-IsdaPlkCjsfBJc-1" source="P1aOT_XNwO-6XhP_oxoh-1" target="P1aOT_XNwO-6XhP_oxoh-4">
          <mxGeometry relative="1" as="geometry" />
        </mxCell>
        <mxCell id="P1aOT_XNwO-6XhP_oxoh-1" value="Sucess?" style="strokeWidth=2;html=1;shape=mxgraph.flowchart.decision;whiteSpace=wrap;fillColor=#FCFCFC;" vertex="1" parent="9qL4d-IsdaPlkCjsfBJc-1">
          <mxGeometry x="540" y="260" width="100" height="100" as="geometry" />
        </mxCell>
        <mxCell id="P1aOT_XNwO-6XhP_oxoh-9" style="edgeStyle=orthogonalEdgeStyle;rounded=0;orthogonalLoop=1;jettySize=auto;html=1;entryX=0.5;entryY=0;entryDx=0;entryDy=0;entryPerimeter=0;" edge="1" parent="9qL4d-IsdaPlkCjsfBJc-1" source="P1aOT_XNwO-6XhP_oxoh-4" target="P1aOT_XNwO-6XhP_oxoh-5">
          <mxGeometry relative="1" as="geometry" />
        </mxCell>
        <mxCell id="P1aOT_XNwO-6XhP_oxoh-11" value="" style="edgeStyle=orthogonalEdgeStyle;rounded=0;orthogonalLoop=1;jettySize=auto;html=1;" edge="1" parent="9qL4d-IsdaPlkCjsfBJc-1" source="P1aOT_XNwO-6XhP_oxoh-4" target="P1aOT_XNwO-6XhP_oxoh-10">
          <mxGeometry relative="1" as="geometry" />
        </mxCell>
        <mxCell id="P1aOT_XNwO-6XhP_oxoh-4" value="Retrieve Invite ID from user meta data" style="rounded=1;whiteSpace=wrap;html=1;absoluteArcSize=1;arcSize=14;strokeWidth=2;fillColor=#FCFCFC;" vertex="1" parent="9qL4d-IsdaPlkCjsfBJc-1">
          <mxGeometry x="540" y="420" width="100" height="100" as="geometry" />
        </mxCell>
        <mxCell id="P1aOT_XNwO-6XhP_oxoh-5" value="WP_User" style="strokeWidth=2;html=1;shape=mxgraph.flowchart.database;whiteSpace=wrap;fillColor=#FCFCFC;" vertex="1" parent="9qL4d-IsdaPlkCjsfBJc-1">
          <mxGeometry x="560" y="665" width="60" height="60" as="geometry" />
        </mxCell>
        <mxCell id="P1aOT_XNwO-6XhP_oxoh-15" value="" style="edgeStyle=orthogonalEdgeStyle;rounded=0;orthogonalLoop=1;jettySize=auto;html=1;" edge="1" parent="9qL4d-IsdaPlkCjsfBJc-1" source="P1aOT_XNwO-6XhP_oxoh-10" target="P1aOT_XNwO-6XhP_oxoh-14">
          <mxGeometry relative="1" as="geometry" />
        </mxCell>
        <mxCell id="P1aOT_XNwO-6XhP_oxoh-10" value="GET invite from Vouched" style="whiteSpace=wrap;html=1;rounded=1;strokeWidth=2;fillColor=#FCFCFC;arcSize=14;" vertex="1" parent="9qL4d-IsdaPlkCjsfBJc-1">
          <mxGeometry x="780" y="440" width="120" height="60" as="geometry" />
        </mxCell>
        <mxCell id="P1aOT_XNwO-6XhP_oxoh-21" value="NO" style="edgeStyle=orthogonalEdgeStyle;rounded=0;orthogonalLoop=1;jettySize=auto;html=1;" edge="1" parent="9qL4d-IsdaPlkCjsfBJc-1" source="P1aOT_XNwO-6XhP_oxoh-14" target="P1aOT_XNwO-6XhP_oxoh-20">
          <mxGeometry relative="1" as="geometry" />
        </mxCell>
        <mxCell id="7gfzRwpiLNgu8FKEyTvD-1" value="YES" style="edgeStyle=orthogonalEdgeStyle;rounded=0;orthogonalLoop=1;jettySize=auto;html=1;" edge="1" parent="9qL4d-IsdaPlkCjsfBJc-1" source="P1aOT_XNwO-6XhP_oxoh-14" target="7gfzRwpiLNgu8FKEyTvD-0">
          <mxGeometry relative="1" as="geometry" />
        </mxCell>
        <mxCell id="P1aOT_XNwO-6XhP_oxoh-14" value="Is status completed?" style="rhombus;whiteSpace=wrap;html=1;rounded=1;strokeWidth=2;fillColor=#FCFCFC;arcSize=14;" vertex="1" parent="9qL4d-IsdaPlkCjsfBJc-1">
          <mxGeometry x="990" y="425" width="100" height="90" as="geometry" />
        </mxCell>
        <mxCell id="P1aOT_XNwO-6XhP_oxoh-20" value="Inform user of invite status with suggested action" style="ellipse;whiteSpace=wrap;html=1;rounded=1;strokeWidth=2;fillColor=#ffcccc;arcSize=14;strokeColor=#36393d;" vertex="1" parent="9qL4d-IsdaPlkCjsfBJc-1">
          <mxGeometry x="1130" y="432.5" width="130" height="75" as="geometry" />
        </mxCell>
        <mxCell id="P1aOT_XNwO-6XhP_oxoh-22" value="&lt;span&gt;Default WP login fail&lt;/span&gt;" style="ellipse;whiteSpace=wrap;html=1;rounded=1;strokeWidth=2;fillColor=#ffcccc;arcSize=14;strokeColor=#36393d;" vertex="1" parent="9qL4d-IsdaPlkCjsfBJc-1">
          <mxGeometry x="710" y="280" width="120" height="60" as="geometry" />
        </mxCell>
        <mxCell id="7gfzRwpiLNgu8FKEyTvD-3" value="" style="edgeStyle=orthogonalEdgeStyle;rounded=0;orthogonalLoop=1;jettySize=auto;html=1;" edge="1" parent="9qL4d-IsdaPlkCjsfBJc-1" source="7gfzRwpiLNgu8FKEyTvD-0" target="7gfzRwpiLNgu8FKEyTvD-2">
          <mxGeometry relative="1" as="geometry" />
        </mxCell>
        <mxCell id="7gfzRwpiLNgu8FKEyTvD-0" value="GET Job ID from Invite object" style="whiteSpace=wrap;html=1;rounded=1;strokeWidth=2;fillColor=#FCFCFC;arcSize=14;" vertex="1" parent="9qL4d-IsdaPlkCjsfBJc-1">
          <mxGeometry x="980" y="552.5" width="120" height="60" as="geometry" />
        </mxCell>
        <mxCell id="7gfzRwpiLNgu8FKEyTvD-5" value="NO" style="edgeStyle=orthogonalEdgeStyle;rounded=0;orthogonalLoop=1;jettySize=auto;html=1;" edge="1" parent="9qL4d-IsdaPlkCjsfBJc-1" source="7gfzRwpiLNgu8FKEyTvD-2" target="7gfzRwpiLNgu8FKEyTvD-4">
          <mxGeometry relative="1" as="geometry" />
        </mxCell>
        <mxCell id="7gfzRwpiLNgu8FKEyTvD-11" value="YES" style="edgeStyle=orthogonalEdgeStyle;rounded=0;orthogonalLoop=1;jettySize=auto;html=1;" edge="1" parent="9qL4d-IsdaPlkCjsfBJc-1" source="7gfzRwpiLNgu8FKEyTvD-2" target="7gfzRwpiLNgu8FKEyTvD-10">
          <mxGeometry relative="1" as="geometry" />
        </mxCell>
        <mxCell id="7gfzRwpiLNgu8FKEyTvD-2" value="Is status complete?" style="rhombus;whiteSpace=wrap;html=1;rounded=1;strokeWidth=2;fillColor=#FCFCFC;arcSize=14;" vertex="1" parent="9qL4d-IsdaPlkCjsfBJc-1">
          <mxGeometry x="805" y="540" width="90" height="85" as="geometry" />
        </mxCell>
        <mxCell id="7gfzRwpiLNgu8FKEyTvD-4" value="Inform user of invite status with suggested action" style="ellipse;whiteSpace=wrap;html=1;rounded=1;strokeWidth=2;fillColor=#ffcccc;arcSize=14;strokeColor=#36393d;" vertex="1" parent="9qL4d-IsdaPlkCjsfBJc-1">
          <mxGeometry x="620" y="550" width="130" height="65" as="geometry" />
        </mxCell>
        <mxCell id="7gfzRwpiLNgu8FKEyTvD-13" value="NO" style="edgeStyle=orthogonalEdgeStyle;rounded=0;orthogonalLoop=1;jettySize=auto;html=1;" edge="1" parent="9qL4d-IsdaPlkCjsfBJc-1" source="7gfzRwpiLNgu8FKEyTvD-10" target="7gfzRwpiLNgu8FKEyTvD-12">
          <mxGeometry relative="1" as="geometry" />
        </mxCell>
        <mxCell id="7gfzRwpiLNgu8FKEyTvD-15" value="YES" style="edgeStyle=orthogonalEdgeStyle;rounded=0;orthogonalLoop=1;jettySize=auto;html=1;" edge="1" parent="9qL4d-IsdaPlkCjsfBJc-1" source="7gfzRwpiLNgu8FKEyTvD-10" target="7gfzRwpiLNgu8FKEyTvD-14">
          <mxGeometry relative="1" as="geometry" />
        </mxCell>
        <mxCell id="7gfzRwpiLNgu8FKEyTvD-10" value="Was job successful?" style="rhombus;whiteSpace=wrap;html=1;rounded=1;strokeWidth=2;fillColor=#FCFCFC;arcSize=14;" vertex="1" parent="9qL4d-IsdaPlkCjsfBJc-1">
          <mxGeometry x="805" y="665" width="90" height="85" as="geometry" />
        </mxCell>
        <mxCell id="7gfzRwpiLNgu8FKEyTvD-12" value="Inform user of invalid ID and give link back to Invite for user to make corrections" style="ellipse;whiteSpace=wrap;html=1;rounded=1;strokeWidth=2;fillColor=#ffcccc;arcSize=14;strokeColor=#36393d;" vertex="1" parent="9qL4d-IsdaPlkCjsfBJc-1">
          <mxGeometry x="952.5" y="660" width="175" height="95" as="geometry" />
        </mxCell>
        <mxCell id="7gfzRwpiLNgu8FKEyTvD-16" style="edgeStyle=orthogonalEdgeStyle;rounded=0;orthogonalLoop=1;jettySize=auto;html=1;entryX=0.5;entryY=1;entryDx=0;entryDy=0;entryPerimeter=0;" edge="1" parent="9qL4d-IsdaPlkCjsfBJc-1" source="7gfzRwpiLNgu8FKEyTvD-14" target="P1aOT_XNwO-6XhP_oxoh-5">
          <mxGeometry relative="1" as="geometry" />
        </mxCell>
        <mxCell id="7gfzRwpiLNgu8FKEyTvD-18" value="" style="edgeStyle=orthogonalEdgeStyle;rounded=0;orthogonalLoop=1;jettySize=auto;html=1;" edge="1" parent="9qL4d-IsdaPlkCjsfBJc-1" source="7gfzRwpiLNgu8FKEyTvD-14" target="7gfzRwpiLNgu8FKEyTvD-17">
          <mxGeometry relative="1" as="geometry" />
        </mxCell>
        <mxCell id="7gfzRwpiLNgu8FKEyTvD-14" value="Check Country, State, and ID Number against data" style="whiteSpace=wrap;html=1;rounded=1;strokeWidth=2;fillColor=#FCFCFC;arcSize=14;" vertex="1" parent="9qL4d-IsdaPlkCjsfBJc-1">
          <mxGeometry x="790" y="790" width="120" height="60" as="geometry" />
        </mxCell>
        <mxCell id="7gfzRwpiLNgu8FKEyTvD-24" value="YES" style="edgeStyle=orthogonalEdgeStyle;rounded=0;orthogonalLoop=1;jettySize=auto;html=1;" edge="1" parent="9qL4d-IsdaPlkCjsfBJc-1" source="7gfzRwpiLNgu8FKEyTvD-17" target="7gfzRwpiLNgu8FKEyTvD-23">
          <mxGeometry relative="1" as="geometry" />
        </mxCell>
        <mxCell id="7gfzRwpiLNgu8FKEyTvD-26" value="NO" style="edgeStyle=orthogonalEdgeStyle;rounded=0;orthogonalLoop=1;jettySize=auto;html=1;" edge="1" parent="9qL4d-IsdaPlkCjsfBJc-1" source="7gfzRwpiLNgu8FKEyTvD-17" target="7gfzRwpiLNgu8FKEyTvD-25">
          <mxGeometry relative="1" as="geometry" />
        </mxCell>
        <mxCell id="7gfzRwpiLNgu8FKEyTvD-17" value="Does data match?" style="rhombus;whiteSpace=wrap;html=1;rounded=1;strokeWidth=2;fillColor=#FCFCFC;arcSize=14;" vertex="1" parent="9qL4d-IsdaPlkCjsfBJc-1">
          <mxGeometry x="810" y="870" width="80" height="80" as="geometry" />
        </mxCell>
        <mxCell id="7gfzRwpiLNgu8FKEyTvD-23" value="Grant user verified role" style="ellipse;whiteSpace=wrap;html=1;rounded=1;strokeWidth=2;fillColor=#cdeb8b;arcSize=14;strokeColor=#36393d;" vertex="1" parent="9qL4d-IsdaPlkCjsfBJc-1">
          <mxGeometry x="950" y="880" width="120" height="60" as="geometry" />
        </mxCell>
        <mxCell id="7gfzRwpiLNgu8FKEyTvD-28" style="edgeStyle=orthogonalEdgeStyle;rounded=0;orthogonalLoop=1;jettySize=auto;html=1;entryX=0.5;entryY=1;entryDx=0;entryDy=0;entryPerimeter=0;" edge="1" parent="9qL4d-IsdaPlkCjsfBJc-1" source="7gfzRwpiLNgu8FKEyTvD-25" target="P1aOT_XNwO-6XhP_oxoh-5">
          <mxGeometry relative="1" as="geometry" />
        </mxCell>
        <mxCell id="7gfzRwpiLNgu8FKEyTvD-30" value="" style="edgeStyle=orthogonalEdgeStyle;rounded=0;orthogonalLoop=1;jettySize=auto;html=1;" edge="1" parent="9qL4d-IsdaPlkCjsfBJc-1" source="7gfzRwpiLNgu8FKEyTvD-25" target="7gfzRwpiLNgu8FKEyTvD-29">
          <mxGeometry relative="1" as="geometry" />
        </mxCell>
        <mxCell id="7gfzRwpiLNgu8FKEyTvD-25" value="Query meta for matching information" style="whiteSpace=wrap;html=1;rounded=1;strokeWidth=2;fillColor=#FCFCFC;arcSize=14;" vertex="1" parent="9qL4d-IsdaPlkCjsfBJc-1">
          <mxGeometry x="790" y="990" width="120" height="60" as="geometry" />
        </mxCell>
        <mxCell id="7gfzRwpiLNgu8FKEyTvD-32" value="YES" style="edgeStyle=orthogonalEdgeStyle;rounded=0;orthogonalLoop=1;jettySize=auto;html=1;" edge="1" parent="9qL4d-IsdaPlkCjsfBJc-1" source="7gfzRwpiLNgu8FKEyTvD-29" target="7gfzRwpiLNgu8FKEyTvD-31">
          <mxGeometry relative="1" as="geometry" />
        </mxCell>
        <mxCell id="7gfzRwpiLNgu8FKEyTvD-34" value="NO" style="edgeStyle=orthogonalEdgeStyle;rounded=0;orthogonalLoop=1;jettySize=auto;html=1;" edge="1" parent="9qL4d-IsdaPlkCjsfBJc-1" source="7gfzRwpiLNgu8FKEyTvD-29" target="7gfzRwpiLNgu8FKEyTvD-33">
          <mxGeometry relative="1" as="geometry" />
        </mxCell>
        <mxCell id="7gfzRwpiLNgu8FKEyTvD-29" value="Was a match found?" style="rhombus;whiteSpace=wrap;html=1;rounded=1;strokeWidth=2;fillColor=#FCFCFC;arcSize=14;" vertex="1" parent="9qL4d-IsdaPlkCjsfBJc-1">
          <mxGeometry x="960" y="970" width="100" height="100" as="geometry" />
        </mxCell>
        <mxCell id="7gfzRwpiLNgu8FKEyTvD-31" value="Inform User of duplicate ID" style="ellipse;whiteSpace=wrap;html=1;rounded=1;strokeWidth=2;fillColor=#ffcccc;arcSize=14;strokeColor=#36393d;" vertex="1" parent="9qL4d-IsdaPlkCjsfBJc-1">
          <mxGeometry x="1130" y="990" width="120" height="60" as="geometry" />
        </mxCell>
        <mxCell id="7gfzRwpiLNgu8FKEyTvD-35" style="edgeStyle=orthogonalEdgeStyle;rounded=0;orthogonalLoop=1;jettySize=auto;html=1;entryX=0.5;entryY=1;entryDx=0;entryDy=0;entryPerimeter=0;" edge="1" parent="9qL4d-IsdaPlkCjsfBJc-1" source="7gfzRwpiLNgu8FKEyTvD-33" target="P1aOT_XNwO-6XhP_oxoh-5">
          <mxGeometry relative="1" as="geometry" />
        </mxCell>
        <mxCell id="7gfzRwpiLNgu8FKEyTvD-38" value="" style="edgeStyle=orthogonalEdgeStyle;rounded=0;orthogonalLoop=1;jettySize=auto;html=1;" edge="1" parent="9qL4d-IsdaPlkCjsfBJc-1" source="7gfzRwpiLNgu8FKEyTvD-33" target="7gfzRwpiLNgu8FKEyTvD-37">
          <mxGeometry relative="1" as="geometry" />
        </mxCell>
        <mxCell id="7gfzRwpiLNgu8FKEyTvD-33" value="Save ID information to meta" style="whiteSpace=wrap;html=1;rounded=1;strokeWidth=2;fillColor=#FCFCFC;arcSize=14;" vertex="1" parent="9qL4d-IsdaPlkCjsfBJc-1">
          <mxGeometry x="950" y="1110" width="120" height="60" as="geometry" />
        </mxCell>
        <mxCell id="7gfzRwpiLNgu8FKEyTvD-37" value="Grant user verified role" style="ellipse;whiteSpace=wrap;html=1;rounded=1;strokeWidth=2;fillColor=#cdeb8b;arcSize=14;strokeColor=#36393d;" vertex="1" parent="9qL4d-IsdaPlkCjsfBJc-1">
          <mxGeometry x="1130" y="1110" width="120" height="60" as="geometry" />
        </mxCell>
      </root>
    </mxGraphModel>
  </diagram>
</mxfile>
